<svg xmlns="http://www.w3.org/2000/svg" viewBox="0 0 293.913 70.901">
    <g data-name="Group 72" fill="#fff" >
        <g data-name="Group 68">
            <path data-name="Path 46"
                d="M170.998 22.563c-2.181-.613-3.529 1.015-3.956 2.529-1.509 5.33-3.7 12.385-6.546 17.258-.614 1.059-2.046 4.272-5.039 4.272s-4.426-3.213-5.042-4.272c-2.841-4.873-5.035-11.928-6.543-17.258-.429-1.514-1.776-3.142-3.958-2.529-2.466.693-1.995 3.319-1.678 4.441a99.232 99.232 0 005.442 15.372c2.246 4.663 5.163 10.038 11.787 10.038s9.527-5.375 11.766-10.038a98.945 98.945 0 005.448-15.372c.316-1.122.785-3.748-1.681-4.441"></path>
            <path data-name="Path 47"
                d="M52.562 22.579a14.794 14.794 0 1014.795 14.794 14.794 14.794 0 00-14.795-14.794m0 23.376a8.582 8.582 0 118.581-8.582 8.581 8.581 0 01-8.581 8.582"></path>
            <path data-name="Path 48"
                d="M52.817 61.92h-.071c-11.4-.033-19.35-5.353-24.288-16.264a64.7 64.7 0 01-2.677-7.458c-2.47-7.888-3.951-11.061-8.685-10.778-6.636.409-10.379 18.395-11.154 27.04a2.977 2.977 0 11-5.93-.529 94.012 94.012 0 012.815-15.153c3.125-11.1 7.8-16.926 13.9-17.3 9.853-.618 12.563 8.013 14.733 14.938a61.409 61.409 0 002.419 6.785c3.932 8.679 9.932 12.737 18.885 12.762h.053a18.376 18.376 0 0012.208-4.7 2.978 2.978 0 114.241 4.181 24.459 24.459 0 01-16.449 6.476"></path>
            <path data-name="Path 49"
                d="M119.986 12.733l-.07.008c-11.34 1.23-18.683 7.356-22.448 18.725a65.724 65.724 0 00-1.879 7.7c-1.629 8.1-2.767 11.412-7.5 11.628-6.639.29-12.253-17.2-13.933-25.72a2.979 2.979 0 00-5.845 1.151 94.106 94.106 0 004.4 14.773c4.271 10.715 9.535 16.011 15.641 15.747 9.863-.417 11.652-9.286 13.083-16.4a60.466 60.466 0 011.7-7c2.992-9.049 8.534-13.712 17.435-14.679.017 0 .036 0 .053-.006a18.37 18.37 0 0112.632 3.4 2.979 2.979 0 003.783-4.6 24.464 24.464 0 00-17.041-4.715"></path>
            <path data-name="Path 50"
                d="M219.655 22.567a13.931 13.931 0 015.4 1.074 14.11 14.11 0 014.515 2.97 14.645 14.645 0 013.108 4.533 13.862 13.862 0 011.174 5.7V49.22a2.852 2.852 0 01-.85 2.082 2.975 2.975 0 01-2.023.92 2.851 2.851 0 01-2.025-.8 2.652 2.652 0 01-.85-2.02V37.393a9.053 9.053 0 00-.646-3.431 8.742 8.742 0 00-1.791-2.787 8.592 8.592 0 00-2.7-1.9 8.1 8.1 0 00-3.37-.705 8 8 0 00-3.2.644 8.217 8.217 0 00-2.642 1.807 8.988 8.988 0 00-1.818 2.7 8.167 8.167 0 00-.672 3.307V49.22a2.9 2.9 0 01-.88 2.114 2.805 2.805 0 01-2.053.888 2.953 2.953 0 01-2.054-.8 2.606 2.606 0 01-.88-2.02V37.393a15.833 15.833 0 014.169-10.473 13.579 13.579 0 0110.088-4.351"></path>
            <path data-name="Path 51"
                d="M240.135 13.261a2.731 2.731 0 012.127.944 3.868 3.868 0 01.961 2.342v5.473h16.288a2.583 2.583 0 012.036.944 3.223 3.223 0 01-.058 4.348 2.6 2.6 0 01-1.978.974h-16.288v8.881a9.029 9.029 0 00.64 3.376 8.929 8.929 0 001.78 2.829 8.658 8.658 0 002.68 1.947 7.577 7.577 0 003.29.731 8.6 8.6 0 003.348-.578 7.631 7.631 0 002.417-1.613h-.059a3.077 3.077 0 014.311.061 2.835 2.835 0 01.814 2.13 3.8 3.8 0 01-.143 1 1.849 1.849 0 01-.553.882h.057a14.932 14.932 0 01-4.456 3.163 12.633 12.633 0 01-5.274 1.1 15.5 15.5 0 01-5.734-1.065 13.83 13.83 0 01-4.72-3.042 15.106 15.106 0 01-3.231-4.745 15.739 15.739 0 01-1.283-6.174V16.547a3.484 3.484 0 01.846-2.252 2.69 2.69 0 012.182-1.034"></path>
            <path data-name="Path 52"
                d="M200.902 31.839a16.115 16.115 0 00-3.123-4.71 15.468 15.468 0 00-4.508-3.262 12.358 12.358 0 00-10.783 0 16.018 16.018 0 00-4.514 3.262 15.082 15.082 0 00-3.093 4.71 14.323 14.323 0 00-1.126 5.585 14.865 14.865 0 001.126 5.738 15.6 15.6 0 003.066 4.77 14.338 14.338 0 004.51 3.231 11.611 11.611 0 005.407 1.055c.2-.005.4-.03.6-.049a11.7 11.7 0 004.44-1 13.99 13.99 0 004.164-2.959l.147-.181a1.615 1.615 0 00.317-.643 3.53 3.53 0 00.136-.939 2.645 2.645 0 00-.763-1.991 2.874 2.874 0 00-4.032-.058l-.046.061a7.016 7.016 0 01-.9.756 7.187 7.187 0 01-1.916.723 9.674 9.674 0 01-2.08.3 8.574 8.574 0 01-4.425-1.329 11.078 11.078 0 01-3.9-4.468h19.431a2.677 2.677 0 002.2-.877 3.059 3.059 0 00.868-2.143 13.716 13.716 0 00-1.187-5.585m-21.366 2.505a.342.342 0 01.118-.241 11.241 11.241 0 013.381-3.866 8.28 8.28 0 019.658-.028 12.233 12.233 0 013.556 3.955v.119c0 .041.016.061.056.061z"></path>
            <path data-name="Path 53"
                d="M123.511 22.526a14.355 14.355 0 015.2 1.6 14.686 14.686 0 014.186 3.291 15.6 15.6 0 012.766 4.553 14.445 14.445 0 011.016 5.383v11.875a2.842 2.842 0 01-.923 2.123 2.928 2.928 0 01-2.091.892 7.989 7.989 0 01-.954-.063 2.665 2.665 0 01-1.016-.338 3.158 3.158 0 01-.893-.769 2.351 2.351 0 01-.459-1.353c-.206.081-.574.266-1.109.554s-.923.492-1.168.614a13.847 13.847 0 01-1.414.554q-.741.248-1.539.492a16.785 16.785 0 01-3.32.309 14.235 14.235 0 01-8.248-2.493 15.386 15.386 0 01-5.414-6.429 14.594 14.594 0 01-.952-2.86 14.19 14.19 0 01-.338-3.108 13.783 13.783 0 01.338-3.076 16.44 16.44 0 01.952-2.891 15.123 15.123 0 015.414-6.46 14.363 14.363 0 018.248-2.46h.859a7.4 7.4 0 01.86.06m-1.784 23.688a8.8 8.8 0 003.416-.679 8.616 8.616 0 002.829-1.875 9.115 9.115 0 001.907-2.8 8.53 8.53 0 00.709-3.507 8.3 8.3 0 00-.709-3.352 8.8 8.8 0 00-1.937-2.83 10.06 10.06 0 00-2.83-1.937 7.942 7.942 0 00-3.385-.74 8.054 8.054 0 00-3.352.708 9.4 9.4 0 00-2.8 1.937 9.27 9.27 0 00-1.94 2.831 8.307 8.307 0 00-.707 3.383 8.106 8.106 0 00.739 3.446 9.042 9.042 0 002 2.8 10.031 10.031 0 002.826 1.907 7.774 7.774 0 003.23.708"></path>
            <path data-name="Path 54"
                d="M280.75 22.526a14.377 14.377 0 015.2 1.6 14.715 14.715 0 014.18 3.291 15.548 15.548 0 012.769 4.553 14.5 14.5 0 011.013 5.383v11.875a2.845 2.845 0 01-.922 2.123 2.925 2.925 0 01-2.09.892 8.1 8.1 0 01-.956-.063 2.659 2.659 0 01-1.011-.338 3.115 3.115 0 01-.9-.769 2.343 2.343 0 01-.458-1.353 12.388 12.388 0 00-1.11.554c-.532.287-.92.492-1.17.614a13.456 13.456 0 01-1.412.554c-.491.165-1.008.329-1.539.492a16.8 16.8 0 01-3.322.309 14.225 14.225 0 01-8.244-2.493 15.373 15.373 0 01-5.415-6.429 14.8 14.8 0 01-.954-2.86 14.189 14.189 0 01-.335-3.108 13.783 13.783 0 01.335-3.076 16.7 16.7 0 01.954-2.891 15.111 15.111 0 015.415-6.46 14.353 14.353 0 018.244-2.46h.861a7.4 7.4 0 01.862.06m-1.784 23.688a8.786 8.786 0 003.413-.679 8.6 8.6 0 002.83-1.875 9.124 9.124 0 001.91-2.8 8.593 8.593 0 00.7-3.507 8.362 8.362 0 00-.7-3.352 8.762 8.762 0 00-1.941-2.83 10.055 10.055 0 00-2.829-1.937 8.187 8.187 0 00-6.732-.032 9.4 9.4 0 00-2.8 1.937 9.235 9.235 0 00-1.94 2.831 8.29 8.29 0 00-.707 3.383 8.12 8.12 0 00.737 3.446 9.039 9.039 0 002 2.8 10.093 10.093 0 002.827 1.907 7.77 7.77 0 003.233.708"></path>
        </g>
        <g data-name="Group 69" fill-rule="evenodd">
            <path data-name="Path 55"
                d="M78.13 19.562a8.764 8.764 0 003.457 2.669 21.694 21.694 0 00-1.576 7.444c2.381-1.562 3.069-3.964 4.652-5.923 1.607 1.137 2.835 3.034 4.614 3.815.419-1.436-1.537-3.862-2.472-5.049 1.112-1.107 3.443-1.611 4.436-2.777-.972-1.129-3.125.131-4.9.631-.659-.4.669-1.446-.087-2.529-1.574.5-1.978 1.57-2.751 2.465-1.735-.1-3.938-1.311-5.365-.746"></path>
            <path data-name="Path 56"
                d="M80.555 9.026a6.448 6.448 0 001.92 2.545 15.849 15.849 0 00-2.544 4.934c1.979-.64 2.926-2.2 4.417-3.273.911 1.109 1.412 2.681 2.515 3.575.566-.932-.343-3.015-.77-4.03 1-.566 2.735-.472 3.658-1.1-.468-.983-2.228-.509-3.576-.5-.384-.411.748-.89.427-1.8-1.2.045-1.7.725-2.41 1.2-1.2-.4-2.52-1.681-3.637-1.557"></path>
            <path data-name="Path 57"
                d="M103.427 0s1.974 3.286-.866 5.407c0 0 5.091-.418 6.773 1.735 0 0-.787 2.578-6.729 1.527 0 0 1.161 5.322-.044 7.3 0 0-3.173.079-3.436-7.629 0 0-5.6 6.333-10.1 6.906a21.375 21.375 0 016.8-9.185S91.687 4.093 92.168.59a16.35 16.35 0 017.1 3.413s1.614-3.8 4.162-4"></path>
        </g>
    </g>
</svg>