<svg width="153" height="87" viewBox="0 0 253 87" fill="none" xmlns="http://www.w3.org/2000/svg">
    <g data-name="Group 1" fill="#808080">
        <path data-name="Path 01"
            d="M73.8643 85.6908C72.7126 84.9276 62.0304 78.6007 47.4762 77.5617C42.7222 60.4633 51.0471 46.4213 51.3617 45.9043C51.7334 45.2643 51.751 44.8914 51.5249 44.7013C51.2411 44.4604 50.9045 44.6723 50.5503 45.0539C50.5503 45.0539 37.4494 58.4048 44.773 77.4125C44.0019 77.3835 39.6779 77.3545 37.897 77.5141C40.9583 72.1493 40.4134 64.7776 37.6395 60.6463C37.3645 60.2414 37.1434 60.2066 36.9035 60.3488C36.6511 60.5026 36.6159 60.8974 36.7704 61.337C36.7704 61.337 39.5084 69.758 35.4899 77.7133C21.7199 79.1107 11.5076 85.2744 10.9937 85.6839C10.8807 85.7855 10.7902 85.9248 10.8518 86.1091C10.902 86.2542 11.0376 86.3093 11.2951 86.1961C11.6103 86.0655 24.5644 80.7544 42.4282 80.7443C53.6597 80.7443 64.2751 82.7253 73.6412 86.232C73.8673 86.3045 73.9778 86.29 74.0582 86.1304C74.1084 85.9998 74.0464 85.8142 73.8643 85.6908ZM15.168 50.864C15.1429 50.4244 14.8453 50.1573 14.2512 50.1109C10.9416 49.8497 5.8287 51.6671 3.28563 58.7419C3.28563 58.7419 7.97766 53.3002 14.3531 51.7234C14.863 51.5928 15.1944 51.3821 15.168 50.864ZM5.79315 37.1741C5.79315 37.1741 6.69237 40.2867 8.85025 42.754C12.0226 46.3887 17.9417 49.6035 23.6127 48.7283C24.0736 48.6557 24.3524 48.396 24.3486 47.9752C24.3398 47.4992 23.958 47.3962 23.5197 47.3817C15.5182 47.1974 5.79315 37.1741 5.79315 37.1741ZM70.0091 48.4054C69.4778 48.3953 69.2065 48.61 69.1412 48.922C69.0282 49.4647 69.3711 49.8028 69.7654 49.9567C76.1764 52.5623 80.0797 58.3981 80.0797 58.3981C78.2278 51.047 73.332 48.5385 70.0091 48.4054ZM58.7999 47.0747C58.5915 47.1038 58.2901 47.2387 58.2687 47.5101C58.2687 47.7974 58.5174 48.0325 59.1415 48.15C68.8399 49.3733 78.3655 41.9865 76.5136 34.1797C74.4622 39.3451 67.6389 45.9639 58.7999 47.0747ZM66.6291 30.3352C66.1455 30.7851 66.128 31.2103 66.3063 31.4874C66.5412 31.84 66.9443 31.8502 67.2985 31.7124C74.1658 28.9941 79.9078 30.6472 79.9078 30.6472C74.4272 26.3316 69.2653 27.9902 66.6291 30.3352ZM56.3728 35.8538C56.3728 35.8538 55.5803 36.4328 55.9383 37.1337C56.1204 37.5125 56.5537 37.6605 57.0899 37.4254C61.7774 34.7889 65.2821 29.9001 66.6821 23.7467C67.8124 18.7249 67.2485 13.6364 65.3885 9.24399C65.8356 12.8994 65.6635 16.7898 64.7731 20.6958C63.3376 27.0538 60.2717 32.3165 56.3728 35.8538ZM45.744 15.1927C45.744 15.1927 45.6109 15.9763 46.0856 16.2477C46.4097 16.4378 46.75 16.3347 47.0426 15.6643C48.478 12.1983 48.8191 6.01424 44.0341 0.726227C44.0341 0.726227 46.7143 7.29891 45.744 15.1927ZM44.8539 41.296C45.4165 41.1378 45.2884 40.1293 45.2884 40.1293C43.8839 24.0756 54.4331 14.569 58.7129 12.204C50.7911 11.7382 43.729 19.6063 42.7897 30.1775C42.4393 33.8889 42.9228 37.452 44.0041 40.5748C44.2214 41.1117 44.4959 41.399 44.8539 41.296ZM35.2136 17.0565C35.608 16.9985 35.5992 16.4935 35.5854 16.1554C35.1157 7.46797 39.8742 3.01928 39.8742 3.01928L38.8858 3.35739C34.2913 4.9751 33.733 11.5276 34.6103 16.2117C34.7108 16.8153 34.9335 17.0971 35.2136 17.0565ZM36.0194 33.1204C36.145 33.6123 36.405 34.1652 36.8973 34.1129C37.3532 34.0549 37.4775 33.7444 37.4863 32.9506C37.1272 19.1133 27.1235 8.27073 20.3271 10.856C28.3242 14.6237 33.782 24.2693 36.0194 33.1204ZM20.7391 28.635C21.1334 29.0137 21.5102 29.1719 21.7488 28.947C21.9033 28.8018 21.9397 28.4913 21.6609 28.011C18.0855 21.7809 19.2064 14.015 19.2064 14.015C19.2064 14.015 14.1288 22.2821 20.7391 28.635ZM36.3525 46.1893C36.6576 45.9339 36.7066 45.5551 36.365 44.8383C29.5644 32.675 17.3449 29.4347 11.5498 29.4347C7.85031 29.4347 5.70147 31.3647 5.70147 31.3647C23.1178 31.8044 35.2885 45.9183 35.2885 45.9183C35.6652 46.3232 36.0297 46.4447 36.3525 46.1893ZM4.90838 50.8482C6.82676 50.423 8.08051 48.2835 7.70839 46.0668C7.34544 43.8451 5.48873 42.4014 3.57474 42.8265C1.66515 43.2516 0.402478 45.3912 0.774599 47.6128C1.13378 49.8294 2.98108 51.2731 4.90838 50.8482ZM80.1075 41.649C78.1668 41.398 76.4124 43.0058 76.1865 45.2529C75.9743 47.4797 77.3646 49.507 79.3012 49.768C81.2373 50.0292 82.9917 48.417 83.2088 46.1743C83.4386 43.9321 82.0483 41.9153 80.1075 41.649ZM71.8623 25.5336C73.7718 25.9893 75.6459 24.5759 76.0446 22.3648C76.439 20.1584 75.2069 17.9931 73.3068 17.5323C71.3882 17.0767 69.5141 18.5002 69.1198 20.6961C68.7254 22.9126 69.9486 25.078 71.8623 25.5336ZM52.7845 9.94053C54.7295 10.0566 56.3909 8.32805 56.4927 6.07548C56.5932 3.81798 55.1016 1.90845 53.1478 1.78569C51.2028 1.6696 49.5324 3.39309 49.4217 5.65059C49.3338 7.89793 50.8305 9.81762 52.7845 9.94053ZM30.3705 9.9115C32.2977 9.53857 33.6003 7.43895 33.2813 5.21206C32.9711 2.99548 31.1458 1.48023 29.2274 1.83851C27.3001 2.21725 26.002 4.31121 26.3121 6.53795C26.6223 8.76483 28.4433 10.2699 30.3705 9.9115ZM11.1287 25.4432C13.0604 25.0906 14.3852 23.0014 14.0706 20.7847C13.7692 18.5427 11.9616 17.0221 10.0299 17.3702C8.09835 17.7229 6.79573 19.8173 7.08371 22.0389C7.38513 24.2761 9.2014 25.7964 11.1287 25.4432Z"
        />
        <path data-name="Path 02"
            d="M162.83 41.8282C162.244 41.6701 161.962 41.6701 161.815 41.6701C159.719 41.6701 158.2 43.339 158.2 46.2672V68.8277C158.2 73.4195 160.654 76.3528 164.775 76.3528C168.47 76.3528 170.056 74.7711 170.056 72.754C170.056 72.2476 169.968 71.6642 169.688 71.1723C168.832 71.6642 167.459 72.0836 166.436 72.0836C164.136 72.0836 162.829 70.9212 162.829 67.5784V52.8659C163.697 52.6206 164.991 52.4407 166.139 52.4407C167.517 52.4407 168.974 52.6192 170.344 53.1271C170.547 52.6206 170.622 51.9546 170.622 51.4531C170.622 49.3491 169.492 48.2638 166.586 48.2638C165.133 48.2638 163.755 48.6164 162.829 48.9342L162.83 41.8282ZM148.576 48.5225C148.217 48.5225 147.698 48.6096 146.905 48.8548V68.4205C145.687 70.5859 143.45 72.0861 140.982 72.0861C138.727 72.0861 137.366 70.4119 137.366 67.4019V52.3613C137.366 50.1193 136.348 48.522 134.465 48.522C134.039 48.522 133.388 48.522 132.732 48.8543V68.5021C132.732 74.4251 136.206 76.5239 139.604 76.5239C142.422 76.5239 145.328 74.932 146.905 72.6691V72.8331C146.905 74.676 147.566 76.0122 149.67 76.0122C150.238 76.0122 150.946 75.8381 151.54 75.5203V52.3607C151.54 50.1188 150.6 48.5225 148.576 48.5225ZM246.795 68.7505C245.931 71.0132 243.963 72.5031 241.659 72.5031C238.988 72.5031 237.539 71.0132 237.539 68.5867C237.539 65.7405 239.431 63.8105 243.83 63.8105C244.774 63.8105 245.802 63.8976 246.794 64.0615L246.795 68.7505ZM242.098 47.8385C237.047 47.8385 233.711 49.8709 233.711 52.4407C233.711 53.2852 233.929 54.0327 234.57 54.4577C236.378 53.2852 238.558 52.5379 240.786 52.5379C244.845 52.5379 246.794 54.4577 246.794 59.7253V60.3086C245.93 60.1447 244.694 60.0474 243.546 60.0474C236.808 60.0474 232.616 63.2264 232.616 68.8268C232.616 73.511 235.598 76.5211 240.011 76.5211C242.97 76.5211 245.505 74.8471 246.723 72.6765C246.586 74.673 247.72 76.0193 249.621 76.0193C250.125 76.0193 250.923 75.8408 251.419 75.523V58.7065C251.419 51.1197 248.039 47.8385 242.098 47.8385ZM216.922 55.7948C216.922 53.2046 218.871 52.2011 221.631 52.2011C224.303 52.2011 226.102 52.9441 227.71 54.0339C228.14 53.7016 228.499 52.9441 228.499 52.2011C228.499 49.7644 226.913 47.8395 221.419 47.8395C215.699 47.8395 212.07 51.1209 212.07 56.2095C212.07 62.3116 216.275 63.484 219.895 64.4002C222.5 65.0605 224.808 65.7367 224.808 68.5006C224.808 71.091 222.642 72.0842 219.753 72.0842C217.205 72.0842 215.181 71.5922 213.165 70.2514C212.655 70.7579 212.437 71.5922 212.437 72.2481C212.437 74.7718 214.396 76.5226 219.384 76.5226C226.101 76.5226 229.517 73.1745 229.517 68.0962C229.517 61.9737 225.326 60.8065 221.839 59.798C219.234 59.0507 216.922 58.4615 216.922 55.7948ZM185.324 47.8388C183.153 47.8388 180.194 49.9429 179.25 53.0348C179.684 49.6101 178.169 48.5196 176.711 48.5196C176.077 48.5196 175.338 48.7605 174.757 48.9288V72.8356C174.757 74.1822 175.418 76.0197 177.589 76.0197C178.169 76.0197 178.807 75.8413 179.387 75.5177V57.626C180.194 54.7081 182.143 52.2047 185.537 52.2047C186.104 52.2047 186.853 52.2047 187.633 52.3629C187.987 51.7897 188.137 51.1193 188.137 50.4483C188.137 49.1176 187.424 47.8388 185.324 47.8388ZM109.797 76.016C110.084 76.016 110.678 75.9434 111.467 75.688V56.1273C112.628 54.1205 115.02 52.4414 117.324 52.4414C120.075 52.4414 121.666 54.2076 121.666 57.7142V72.1708C121.666 74.4234 122.685 76.0154 124.559 76.0154C124.989 76.0154 125.636 76.0154 126.296 75.6874V56.6237C126.296 50.7007 122.747 48.0284 118.702 48.0284C115.446 48.0284 112.982 49.943 111.467 51.8681V51.6939C111.467 49.8663 110.811 48.525 108.711 48.525C108.14 48.525 107.422 48.6948 106.842 49.0213V72.1705C106.842 74.4231 107.785 76.016 109.797 76.016ZM199.716 52.2815C202.601 52.2815 203.841 53.8734 203.841 56.0338C203.841 58.5473 201.657 60.0472 197.554 60.0472C196.397 60.0472 194.945 59.889 193.846 59.5552C194.014 54.8762 196.456 52.2815 199.716 52.2815ZM208.528 56.2123C208.528 51.3593 205.427 47.8373 199.716 47.8373C193.336 47.8373 188.875 53.4479 188.875 62.3144C188.875 71.3396 193.336 76.5202 200.567 76.5202C205.13 76.5202 208.391 74.8514 208.391 72.164C208.391 71.5081 208.165 70.7564 207.736 70.3414C206.083 71.5908 203.983 72.164 201.887 72.164C197.554 72.164 194.014 69.2459 193.709 63.4817C195.087 63.8909 196.544 64.1477 197.971 64.1477C204.351 64.1477 208.528 61.2239 208.528 56.2123ZM116.978 26.7564H113.638V24.7904H118.976V32.628C118.851 32.7862 118.644 32.9908 118.356 33.2317C118.055 33.4929 117.669 33.7439 117.208 33.9993C116.73 34.2344 116.19 34.4448 115.564 34.6335C114.931 34.8032 114.204 34.8845 113.402 34.8845C112.179 34.8845 111.116 34.6494 110.23 34.1778C109.343 33.696 108.595 33.0053 108.006 32.1454C107.438 31.2849 107.005 30.2565 106.712 29.0792C106.451 27.8718 106.304 26.5757 106.304 25.1424C106.304 23.7653 106.45 22.4907 106.733 21.3286C107.017 20.1518 107.452 19.1426 108.054 18.3133C108.643 17.4731 109.396 16.8082 110.309 16.327C111.208 15.8569 112.316 15.616 113.552 15.616C114.123 15.616 114.695 15.6886 115.262 15.8467C115.811 15.9947 116.317 16.1993 116.729 16.4504C117.176 16.7014 117.526 16.9728 117.787 17.2746C118.054 17.5765 118.196 17.8783 118.196 18.1453C118.196 18.3804 118.12 18.6213 117.992 18.8984C117.866 19.1698 117.731 19.4208 117.563 19.6399H117.177C117.031 19.4513 116.84 19.2249 116.614 19.016C116.348 18.7805 116.063 18.5731 115.764 18.3963C115.468 18.2019 115.104 18.0437 114.718 17.9204C114.332 17.8043 113.898 17.7462 113.402 17.7462C112.436 17.7462 111.63 17.9508 111.001 18.3818C110.368 18.7968 109.849 19.3541 109.468 20.0506C109.078 20.737 108.816 21.5352 108.653 22.4209C108.507 23.3189 108.433 24.2306 108.432 25.1443C108.432 26.1325 108.507 27.0743 108.689 28.0007C108.857 28.9164 109.145 29.7464 109.548 30.4632C109.951 31.1801 110.483 31.7634 111.148 32.2037C111.812 32.6492 112.632 32.8698 113.638 32.8698C114.099 32.8698 114.51 32.8262 114.856 32.7247C115.245 32.6376 115.574 32.5142 115.848 32.4025C116.09 32.2915 116.324 32.158 116.548 32.0035C116.73 31.8496 116.884 31.7379 116.977 31.6189L116.978 26.7564ZM122.189 21.4267C122.455 21.3977 122.605 21.3832 122.605 21.3832C123 21.3832 123.328 21.4993 123.615 21.7053C123.934 21.9099 124.102 22.2785 124.155 22.7704C124.385 22.3815 124.709 22.0173 125.174 21.6806C125.608 21.3425 126.131 21.1641 126.733 21.1641C126.902 21.1641 127.088 21.1786 127.278 21.2221C127.473 21.2656 127.673 21.3382 127.841 21.4006C128.027 21.4877 128.174 21.6052 128.267 21.7532C128.395 21.8983 128.449 22.0913 128.449 22.3264C128.449 22.6181 128.386 22.9562 128.254 23.2943C128.126 23.6324 127.997 23.9081 127.869 24.1345C127.66 23.9096 127.452 23.7398 127.199 23.6324C126.961 23.5018 126.672 23.4423 126.291 23.4423C126.025 23.4423 125.764 23.5003 125.508 23.6005C125.264 23.6875 125.047 23.8312 124.856 24.0155C124.67 24.1795 124.514 24.3739 124.4 24.6046C124.299 24.8252 124.235 25.0545 124.235 25.291V34.4751H122.189V21.4267ZM130.434 21.3292C130.58 21.3212 130.726 21.3164 130.872 21.3147C131.337 21.3147 131.736 21.4453 132.024 21.7297C132.329 22.0112 132.48 22.493 132.48 23.199V29.6441C132.48 30.3551 132.505 30.9399 132.605 31.3641C132.693 31.7733 132.871 32.1013 133.136 32.3218C133.371 32.5264 133.641 32.6599 133.925 32.7369C134.209 32.8094 134.523 32.8529 134.882 32.8529C135.32 32.8529 135.702 32.7804 136.074 32.6382C136.428 32.4931 136.747 32.3407 137 32.1259C137.248 31.9213 137.452 31.7109 137.58 31.4802C137.739 31.2553 137.81 31.0405 137.81 30.8606V21.3337C137.953 21.3255 138.096 21.3206 138.239 21.3192C138.731 21.3192 139.108 21.4498 139.4 21.7342C139.696 22.0157 139.843 22.4975 139.843 23.2035V34.4862H137.809V33.2571C137.478 33.6968 137.038 34.0712 136.467 34.3991C135.887 34.7314 135.133 34.8954 134.234 34.8954C133.317 34.8954 132.603 34.7314 132.085 34.3991C131.566 34.0712 131.19 33.646 130.937 33.1236C130.699 32.6171 130.538 32.0338 130.508 31.4345C130.47 30.8105 130.432 30.2112 130.432 29.6477L130.434 21.3292ZM145.428 31.3542C145.516 31.4993 145.637 31.6619 145.791 31.8302C145.942 32.0087 146.159 32.1683 146.403 32.312C146.629 32.4701 146.89 32.5877 147.187 32.7067C147.483 32.8228 147.781 32.8706 148.117 32.8706C149.118 32.8706 149.867 32.4411 150.359 31.6067C150.881 30.752 151.104 29.5283 151.104 27.9464C151.104 27.2862 151.066 26.6564 150.967 26.0626C150.866 25.4691 150.692 24.967 150.453 24.537C150.232 24.122 149.926 23.7839 149.536 23.5387C149.151 23.2876 148.641 23.1657 148.083 23.1657C147.317 23.1657 146.679 23.35 146.187 23.7084C145.668 24.0872 145.43 24.5167 145.43 25.0449L145.428 31.3542ZM143.395 21.4229C143.635 21.3939 143.78 21.3939 143.838 21.3939C144.241 21.3939 144.56 21.4955 144.827 21.6957C145.119 21.8945 145.319 22.2486 145.394 22.7144C145.699 22.2994 146.125 21.9468 146.661 21.6348C147.201 21.333 147.888 21.1748 148.704 21.1748C149.328 21.1748 149.918 21.2909 150.454 21.5376C151.008 21.7683 151.513 22.1674 151.929 22.6898C152.355 23.202 152.683 23.8884 152.93 24.7273C153.16 25.5675 153.298 26.601 153.298 27.8142C153.298 29.1957 153.152 30.3482 152.86 31.2593C152.549 32.1706 152.169 32.8976 151.699 33.4299C151.238 33.9625 150.711 34.3514 150.135 34.5661C149.573 34.7809 149.005 34.8883 148.461 34.8883C147.593 34.8883 146.919 34.7098 146.418 34.3818C145.922 34.0437 145.607 33.7419 145.43 33.4604V40.4533H143.396L143.395 21.4229ZM159.387 32.4611C159.777 32.7485 160.287 32.9066 160.929 32.9066C161.545 32.9066 162.068 32.7485 162.48 32.4408C162.923 32.1433 163.22 31.7501 163.451 31.2785C163.688 30.7859 163.847 30.2485 163.921 29.6915C163.996 29.1082 164.049 28.5147 164.049 27.9408C164.049 27.3719 163.998 26.7987 163.921 26.2463C163.845 25.6833 163.677 25.1768 163.451 24.7207C163.221 24.2709 162.923 23.9067 162.516 23.6353C162.113 23.3639 161.603 23.2261 160.957 23.2261C160.35 23.2261 159.849 23.3712 159.446 23.6353C159.043 23.9067 158.715 24.2694 158.472 24.7207C158.219 25.1764 158.051 25.6828 157.962 26.2463C157.848 26.8015 157.789 27.3701 157.788 27.9408C157.788 28.514 157.839 29.1075 157.93 29.6915C158.006 30.285 158.179 30.8074 158.418 31.2785C158.666 31.7486 158.974 32.1491 159.387 32.4611ZM156.863 32.85C156.455 32.2101 156.145 31.4932 155.964 30.6284C155.764 29.8085 155.662 28.9185 155.662 28.0021C155.662 27.0749 155.788 26.1951 155.995 25.3761C156.23 24.5359 156.558 23.8147 157.01 23.1952C157.448 22.5857 158.007 22.0894 158.685 21.7261C159.328 21.3517 160.12 21.1674 161.006 21.1674C161.941 21.1674 162.747 21.3517 163.394 21.7261C164.059 22.0888 164.581 22.5866 165.003 23.1952C165.423 23.8148 165.734 24.536 165.924 25.3504C166.119 26.1587 166.194 27.0141 166.194 27.9203C166.194 28.8316 166.119 29.6915 165.924 30.531C165.734 31.3756 165.423 32.118 164.99 32.7579C164.573 33.4138 164.024 33.9202 163.364 34.3091C162.677 34.698 161.875 34.8881 160.932 34.8881C159.961 34.8881 159.151 34.7038 158.495 34.3454C157.817 33.9667 157.266 33.47 156.863 32.85Z"
        />
    </g>
</svg>